<svg width="24" height="24" viewBox="0 0 24 24" fill="none" xmlns="http://www.w3.org/2000/svg">
<path d="M7.97535 19.4414C15.1456 19.4414 19.0666 13.5012 19.0666 8.35021C19.0666 8.18148 19.0631 8.01347 19.0556 7.84634C19.8166 7.29607 20.4782 6.6094 21 5.82779C20.3016 6.13829 19.5499 6.34717 18.7614 6.44154C19.5663 5.95883 20.1842 5.19548 20.4756 4.28542C19.7224 4.7319 18.8883 5.05631 18.0003 5.23157C17.2889 4.47387 16.2761 4 15.1547 4C13.0021 4 11.2563 5.74574 11.2563 7.89765C11.2563 8.20366 11.2906 8.50112 11.3574 8.78654C8.11755 8.62346 5.24461 7.0724 3.32217 4.71363C2.98746 5.2897 2.79437 5.95897 2.79437 6.67304C2.79437 8.02536 3.48264 9.21939 4.5291 9.9178C3.88954 9.89808 3.28883 9.72254 2.76364 9.4303C2.76306 9.44668 2.76306 9.46263 2.76306 9.48002C2.76306 11.368 4.10669 12.9442 5.89055 13.3014C5.56294 13.3906 5.21823 13.4386 4.86265 13.4386C4.61187 13.4386 4.36747 13.4139 4.12988 13.3683C4.62622 14.9171 6.06537 16.0442 7.77153 16.0758C6.43733 17.1215 4.75654 17.7444 2.92991 17.7444C2.61564 17.7444 2.30514 17.7264 2 17.6905C3.72515 18.7962 5.77371 19.4414 7.97535 19.4414Z" fill="#1976D2"/>
</svg>
